<?xml version="1.0" standalone="no"?>
<!DOCTYPE svg PUBLIC "-//W3C//DTD SVG 20010904//EN"
 "http://www.w3.org/TR/2001/REC-SVG-20010904/DTD/svg10.dtd">
<svg version="1.0" xmlns="http://www.w3.org/2000/svg"
 width="700.000000pt" height="700.000000pt" viewBox="0 0 700.000000 700.000000"
 preserveAspectRatio="xMidYMid meet">
<metadata>
Created by potrace 1.14, written by Peter Selinger 2001-2017
</metadata>
<g transform="translate(0.000000,700.000000) scale(0.100000,-0.100000)"
fill="#000000" stroke="none">
<path d="M4557 5255 c-115 -42 -180 -152 -211 -355 -11 -73 -12 -75 -44 -85
-27 -8 -32 -14 -30 -34 2 -16 15 -32 35 -44 44 -25 193 -54 343 -66 69 -6 149
-18 178 -26 30 -9 56 -14 59 -11 12 11 -9 59 -42 95 -19 21 -35 42 -35 46 0 5
38 45 85 90 55 54 85 90 85 104 0 35 46 115 85 149 56 50 114 43 144 -17 31
-61 34 -94 12 -155 -22 -64 -18 -87 20 -123 79 -73 186 -52 275 52 27 32 75
75 108 96 l58 39 -28 12 c-20 8 -75 12 -171 11 -170 -3 -182 3 -203 94 -9 44
-22 67 -51 96 -38 38 -39 39 -96 33 -163 -17 -223 -17 -326 -2 -129 19 -199
19 -250 1z"/>
<path d="M5089 5047 c-9 -7 -21 -22 -27 -33 -10 -20 -8 -22 20 -28 17 -3 47
-6 66 -6 l36 0 -32 29 c-17 17 -32 35 -32 40 0 14 -11 13 -31 -2z"/>
<path d="M2755 4938 c-53 -13 -137 -22 -250 -27 l-170 -7 -100 -43 c-74 -33
-120 -46 -178 -52 -94 -9 -148 -40 -231 -130 -45 -48 -59 -73 -76 -129 -26
-86 -57 -124 -153 -183 -40 -25 -79 -58 -88 -74 -9 -15 -31 -74 -48 -130 -42
-136 -76 -183 -190 -261 -109 -76 -121 -95 -147 -247 -19 -113 -21 -173 -9
-330 5 -70 2 -115 -14 -205 -53 -292 -57 -333 -39 -421 40 -191 204 -367 540
-578 92 -58 376 -211 392 -211 4 0 -9 20 -28 45 -19 25 -54 85 -79 133 -229
446 -139 915 253 1314 120 122 198 167 322 188 135 23 243 4 550 -97 194 -64
207 -67 303 -67 71 -1 108 3 127 14 15 8 69 56 121 106 54 52 124 108 165 132
174 100 377 155 555 150 l102 -3 -3 -45 c-2 -25 -16 -74 -33 -108 -58 -126
-60 -228 -9 -365 46 -122 182 -287 249 -302 16 -3 45 0 67 8 21 8 65 24 96 36
107 39 216 22 255 -39 45 -71 64 -89 130 -120 220 -104 483 -180 483 -140 0 5
-31 43 -68 84 -122 134 -223 288 -276 419 -31 79 -33 115 -5 168 26 52 22 83
-11 87 -119 15 -380 154 -693 370 -147 101 -167 118 -235 200 -25 30 -65 63
-92 77 -27 14 -68 47 -92 76 -100 121 -120 138 -208 184 -74 37 -97 56 -134
104 -56 73 -98 110 -178 156 -35 20 -102 66 -149 101 -47 35 -105 71 -129 79
-23 8 -98 19 -165 24 -110 9 -130 13 -196 45 -85 42 -116 43 -234 14z"/>
<path d="M4348 2783 c-20 -21 -59 -67 -86 -102 -46 -60 -54 -65 -123 -87 -41
-13 -79 -27 -86 -32 -18 -11 19 -591 38 -603 23 -14 44 -10 111 21 75 36 86
36 139 9 46 -23 56 -20 40 9 -6 12 -11 45 -11 75 0 45 10 77 61 188 106 231
209 469 209 480 0 6 -13 1 -29 -10 -35 -25 -62 -26 -125 -5 -37 13 -51 24 -67
55 -10 21 -23 39 -27 39 -4 0 -24 -17 -44 -37z"/>
<path d="M4907 2732 c-23 -33 -57 -80 -74 -105 -18 -26 -40 -47 -48 -47 -9 0
-39 -10 -66 -21 -48 -21 -49 -23 -49 -63 2 -105 28 -525 34 -535 12 -18 59
-12 101 14 49 30 80 31 124 4 l34 -20 -7 23 c-23 80 -19 121 24 228 95 237
191 493 188 502 -2 5 -16 0 -31 -12 -26 -20 -32 -21 -72 -10 -48 14 -68 31
-84 73 -6 15 -15 27 -21 27 -5 0 -29 -26 -53 -58z"/>
</g>
</svg>
