<svg width="1250" height="1250" viewBox="0 0 1250 1250" fill="none" xmlns="http://www.w3.org/2000/svg">
<rect width="1250" height="1250" rx="56" fill="#233140"/>
<path d="M658.376 641.451C703.293 584.497 804.52 562.585 848.786 575.374L831.698 542.975L613.947 484.145C553.244 482.866 407.035 489.261 307.826 525.07C183.815 569.832 230.685 663.618 193.58 702.412C163.895 733.447 203.428 856.365 238.255 911.5C266.409 927.131 330.755 985 330.755 985C330.755 985 193.58 826.996 368.855 655.519C468.992 557.551 602.23 712.643 658.376 641.451Z" fill="#C0392B"/>
<path d="M842.286 534.996C859.799 561.412 874.893 559.994 868.355 584.825C856.131 596.927 852.581 591.529 854.286 570.496C855.992 549.463 834.558 563.5 834.255 563C821.561 542.056 753.755 535.5 713.755 516.5C604.392 464.553 607.848 594.337 533.786 561.996C419.286 511.996 349.465 545.58 291.899 632.175C231.692 722.744 298.722 695.138 233.054 807.496C201.786 860.996 330.755 985 330.755 985C330.755 985 213.03 930.2 162.255 873C111.48 815.8 131.345 780.85 141.286 717C151.228 653.15 131.818 668.85 141.286 632.175C150.755 595.5 140.938 579.523 170.786 561.996C194.665 547.974 209.175 534.95 218.13 497.392C227.085 459.833 240.478 465.523 261.286 448.496C287.297 427.213 267.806 415.417 299.786 385.996C325.371 362.459 332.408 364.684 349.465 364.684C364.388 364.684 399.842 341.496 419.286 341.496C443.592 341.496 451.602 346.889 499.786 334.996C547.971 323.102 529.043 349.66 589.286 349.66C638.769 349.66 640.669 372.715 680.286 392.996C722.286 414.496 711.747 434.724 746.286 448.496C780.826 462.267 782.978 483.854 798.755 497C814.532 510.146 818.755 499.5 842.286 534.996Z" fill="#E74C3C"/>
<path d="M1032.21 642.448C996.429 642.448 892.211 572.948 842.211 534.948C835.411 541.348 834.044 556.614 834.211 563.448C848.877 555.448 842.211 596.336 837.711 603.448C797.21 667.447 865.211 743.448 884.711 749.448C904.211 755.448 918.711 731.448 953.711 736.448C988.711 741.448 968.711 757.448 994.711 770.448C1046.02 796.104 1126.21 821.63 1103.21 798.448C1052.81 747.648 1017.71 679.448 1029.71 665.448C1038.21 654.448 1039.71 642.448 1032.21 642.448Z" fill="#CBD0D3"/>
<path d="M1085.21 349.448C1093.61 336.248 1112.38 324.948 1120.71 320.948C1115.88 318.781 1103.11 314.448 1090.71 314.448C1075.21 314.448 1068.71 317.948 1052.21 316.448C1039.01 315.248 1035.38 304.281 1035.21 298.948C1034.04 288.781 1027.41 270.148 1010.21 266.948C993.011 263.748 993.411 272.448 972.211 272.448C951.011 272.448 934.211 268.312 908.211 264.448C895.877 262.614 867.111 265.448 850.711 291.448C834.311 317.448 833.786 356.944 832.211 358.448C821.211 368.948 815.411 357.348 818.211 370.948C821.011 384.548 872.377 391.281 897.711 392.948C929.711 392.948 951.711 403.448 951.711 403.448C951.711 403.448 951.711 385.496 934.211 374.448C931.704 372.865 932.711 370.175 934.211 368.948C939.711 364.448 950.902 350.966 961.211 342.948C974.711 332.448 964.711 332.948 974.711 314.448C990.73 284.812 1008.04 287.948 1014.21 292.948C1020.54 299.948 1030.91 318.148 1021.71 334.948C1010.21 355.948 1031.21 366.448 1043.21 368.948C1055.21 371.448 1074.71 365.948 1085.21 349.448Z" fill="#CBD0D3"/>
<path d="M853.711 804.996C849.863 801.498 848.711 788.996 843.211 788.996C825.711 802.996 807.711 835.225 801.211 835.496C791.611 835.896 775.877 842.663 769.211 845.996C771.377 881.329 775.811 954.296 776.211 963.496C776.706 974.886 778.673 974.995 787.454 975.482L787.711 975.496C796.711 975.996 811.211 962.496 822.711 963.496C834.211 964.496 849.711 979.996 843.211 969.496C838.011 961.096 838.044 945.996 838.711 939.496C859.377 894.663 900.111 804.996 897.711 804.996C895.311 804.996 887.377 811.329 883.711 814.496C874.544 813.329 859.211 809.996 853.711 804.996Z" fill="#CBD0D3"/>
<path d="M974.093 811.437C970.891 808.061 969.933 795.996 965.356 795.996C950.796 809.507 935.819 840.611 930.411 840.872C922.424 841.258 909.333 847.788 903.786 851.005C905.589 885.105 909.278 955.523 909.611 964.402C910.023 975.394 911.659 975.499 918.965 975.969L919.179 975.983C926.667 976.465 938.732 963.437 948.3 964.402C957.868 965.367 970.765 980.326 965.356 970.192C961.03 962.086 961.058 947.513 961.612 941.24C978.807 897.972 1012.7 811.437 1010.7 811.437C1008.71 811.437 1002.1 817.549 999.053 820.605C991.427 819.479 978.669 816.262 974.093 811.437Z" fill="#AFB6BB"/>
<path fill-rule="evenodd" clip-rule="evenodd" d="M1105.44 324.31C1097.45 325.422 1088.26 326.701 1080.29 330.496C1069.79 335.496 1062.54 336.996 1050.29 336.996C1049.62 336.996 1048.97 337 1048.34 337.004C1037.18 337.073 1031.29 337.109 1031.29 314.448C1031.29 301.996 1027.62 283.496 1021.29 276.496C1015.29 268.714 982.806 262.36 966.786 291.996C960.853 302.972 958.616 296.524 956.421 290.194C954.916 285.855 953.43 281.572 950.786 282.996C946.58 285.261 945.451 286.203 945.27 286.047C944.957 285.777 947.494 282.204 941.786 276.496C940.416 275.125 939.286 271.996 940.786 269.996C940.851 269.91 940.915 269.825 940.979 269.741C951.466 271.342 961.25 272.448 972.211 272.448C982.309 272.448 987.506 270.474 992.039 268.752C997.023 266.86 1001.2 265.272 1010.21 266.948C1027.41 270.148 1034.04 288.781 1035.21 298.948C1035.38 304.281 1039.01 315.248 1052.21 316.448C1061.69 317.309 1067.87 316.521 1074.35 315.694C1079.15 315.081 1084.12 314.448 1090.71 314.448C1103.1 314.448 1115.85 318.771 1120.69 320.94C1120.7 320.942 1120.7 320.945 1120.71 320.948C1120.71 320.95 1120.7 320.953 1120.69 320.955C1117.06 322.693 1111.61 323.452 1105.44 324.31Z" fill="#D9DCDE"/>
<path d="M986.436 322.504C989.616 313.135 996.012 311.107 999.271 309.748C1001.67 314.727 1000.87 316.751 1001.6 317.198C1006.05 319.917 1014.07 326.45 1012.52 326.371C988.3 325.148 985.306 325.832 986.436 322.504Z" fill="#F1C40F"/>
</svg>
