<svg width="1500" height="1500" viewBox="0 0 1500 1500" fill="none" xmlns="http://www.w3.org/2000/svg">
<rect width="1500" height="1500" rx="750" fill="#233140"/>
<path d="M755.376 747.451C800.294 690.497 901.52 668.585 945.786 681.374L928.698 648.975L710.947 590.145C650.244 588.866 504.035 595.261 404.826 631.07C280.815 675.832 327.685 769.618 290.58 808.412C260.895 839.447 300.428 962.365 335.255 1017.5C363.41 1033.13 427.755 1091 427.755 1091C427.755 1091 290.58 932.996 465.855 761.519C565.992 663.551 699.23 818.643 755.376 747.451Z" fill="#C0392B"/>
<path d="M939.286 640.996C956.799 667.412 971.893 665.994 965.355 690.825C953.131 702.927 949.581 697.529 951.286 676.496C952.992 655.463 931.558 669.5 931.255 669C918.561 648.056 850.755 641.5 810.755 622.5C701.392 570.553 704.848 700.337 630.786 667.996C516.286 617.996 446.465 651.58 388.899 738.175C328.692 828.744 395.722 801.138 330.054 913.496C298.786 966.996 427.755 1091 427.755 1091C427.755 1091 310.03 1036.2 259.255 979C208.48 921.8 228.345 886.85 238.286 823C248.228 759.15 228.818 774.85 238.286 738.175C247.755 701.5 237.938 685.523 267.786 667.996C291.665 653.974 306.175 640.95 315.13 603.392C324.085 565.833 337.478 571.523 358.286 554.496C384.297 533.213 364.806 521.417 396.786 491.996C422.371 468.459 429.408 470.684 446.465 470.684C461.388 470.684 496.842 447.496 516.286 447.496C540.592 447.496 548.602 452.889 596.786 440.996C644.971 429.102 626.043 455.66 686.286 455.66C735.769 455.66 737.669 478.715 777.286 498.996C819.286 520.496 808.747 540.724 843.286 554.496C877.826 568.267 879.978 589.854 895.755 603C911.532 616.146 915.755 605.5 939.286 640.996Z" fill="#E74C3C"/>
<path d="M1129.21 748.448C1093.43 748.448 989.211 678.948 939.211 640.948C932.411 647.348 931.044 662.614 931.211 669.448C945.877 661.448 939.211 702.336 934.711 709.448C894.21 773.447 962.211 849.448 981.711 855.448C1001.21 861.448 1015.71 837.448 1050.71 842.448C1085.71 847.448 1065.71 863.448 1091.71 876.448C1143.02 902.104 1223.21 927.63 1200.21 904.448C1149.81 853.648 1114.71 785.448 1126.71 771.448C1135.21 760.448 1136.71 748.448 1129.21 748.448Z" fill="#CBD0D3"/>
<path d="M1182.21 455.448C1190.61 442.248 1209.38 430.948 1217.71 426.948C1212.88 424.781 1200.11 420.448 1187.71 420.448C1172.21 420.448 1165.71 423.948 1149.21 422.448C1136.01 421.248 1132.38 410.281 1132.21 404.948C1131.04 394.781 1124.41 376.148 1107.21 372.948C1090.01 369.748 1090.41 378.448 1069.21 378.448C1048.01 378.448 1031.21 374.312 1005.21 370.448C992.877 368.614 964.111 371.448 947.711 397.448C931.311 423.448 930.786 462.944 929.211 464.448C918.211 474.948 912.411 463.348 915.211 476.948C918.011 490.548 969.377 497.281 994.711 498.948C1026.71 498.948 1048.71 509.448 1048.71 509.448C1048.71 509.448 1048.71 491.496 1031.21 480.448C1028.7 478.865 1029.71 476.175 1031.21 474.948C1036.71 470.448 1047.9 456.966 1058.21 448.948C1071.71 438.448 1061.71 438.948 1071.71 420.448C1087.73 390.812 1105.04 393.948 1111.21 398.948C1117.54 405.948 1127.91 424.148 1118.71 440.948C1107.21 461.948 1128.21 472.448 1140.21 474.948C1152.21 477.448 1171.71 471.948 1182.21 455.448Z" fill="#CBD0D3"/>
<path d="M950.711 910.996C946.863 907.498 945.711 894.996 940.211 894.996C922.711 908.996 904.711 941.225 898.211 941.496C888.611 941.896 872.877 948.663 866.211 951.996C868.377 987.329 872.811 1060.3 873.211 1069.5C873.706 1080.89 875.673 1080.99 884.454 1081.48L884.711 1081.5C893.711 1082 908.211 1068.5 919.711 1069.5C931.211 1070.5 946.711 1086 940.211 1075.5C935.011 1067.1 935.044 1052 935.711 1045.5C956.377 1000.66 997.111 910.996 994.711 910.996C992.311 910.996 984.377 917.329 980.711 920.496C971.544 919.329 956.211 915.996 950.711 910.996Z" fill="#CBD0D3"/>
<path d="M1071.09 917.437C1067.89 914.061 1066.93 901.996 1062.36 901.996C1047.8 915.507 1032.82 946.611 1027.41 946.872C1019.42 947.258 1006.33 953.788 1000.79 957.005C1002.59 991.105 1006.28 1061.52 1006.61 1070.4C1007.02 1081.39 1008.66 1081.5 1015.97 1081.97L1016.18 1081.98C1023.67 1082.47 1035.73 1069.44 1045.3 1070.4C1054.87 1071.37 1067.76 1086.33 1062.36 1076.19C1058.03 1068.09 1058.06 1053.51 1058.61 1047.24C1075.81 1003.97 1109.7 917.437 1107.7 917.437C1105.71 917.437 1099.1 923.549 1096.05 926.605C1088.43 925.479 1075.67 922.262 1071.09 917.437Z" fill="#AFB6BB"/>
<path fill-rule="evenodd" clip-rule="evenodd" d="M1202.44 430.31C1194.45 431.422 1185.26 432.701 1177.29 436.496C1166.79 441.496 1159.54 442.996 1147.29 442.996C1146.62 442.996 1145.97 443 1145.34 443.004C1134.18 443.073 1128.29 443.109 1128.29 420.448C1128.29 407.996 1124.62 389.496 1118.29 382.496C1112.29 374.714 1079.81 368.36 1063.79 397.996C1057.85 408.972 1055.62 402.524 1053.42 396.194C1051.92 391.855 1050.43 387.572 1047.79 388.996C1043.58 391.261 1042.45 392.203 1042.27 392.047C1041.96 391.777 1044.49 388.204 1038.79 382.496C1037.42 381.125 1036.29 377.996 1037.79 375.996C1037.85 375.91 1037.91 375.825 1037.98 375.741C1048.47 377.342 1058.25 378.448 1069.21 378.448C1079.31 378.448 1084.51 376.474 1089.04 374.752C1094.02 372.86 1098.2 371.272 1107.21 372.948C1124.41 376.148 1131.04 394.781 1132.21 404.948C1132.38 410.281 1136.01 421.248 1149.21 422.448C1158.69 423.309 1164.87 422.521 1171.35 421.694C1176.15 421.081 1181.12 420.448 1187.71 420.448C1200.1 420.448 1212.85 424.771 1217.69 426.94C1217.7 426.942 1217.7 426.945 1217.71 426.948C1217.71 426.95 1217.7 426.953 1217.69 426.955C1214.06 428.693 1208.61 429.452 1202.44 430.31Z" fill="#D9DCDE"/>
<path d="M1083.44 428.504C1086.62 419.135 1093.01 417.107 1096.27 415.748C1098.67 420.727 1097.87 422.751 1098.6 423.198C1103.05 425.917 1111.07 432.45 1109.52 432.371C1085.3 431.148 1082.31 431.832 1083.44 428.504Z" fill="#F1C40F"/>
</svg>
