<svg width="640" height="640" viewBox="0 0 640 640" fill="none" xmlns="http://www.w3.org/2000/svg">
<rect width="640" height="640" rx="320" fill="black"/>
<path d="M298.372 240.43L298.372 428.747L254.914 428.747L254.914 283.888C254.914 278.181 256.038 272.53 258.222 267.257C260.406 261.984 263.607 257.194 267.643 253.158C271.678 249.123 276.469 245.922 281.742 243.738C287.014 241.554 292.665 240.43 298.372 240.43L298.372 240.43V240.43Z" fill="url(#paint0_linear_1_2)"/>
<path d="M385.288 356.321H341.83V428.748H385.288V356.321Z" fill="url(#paint1_linear_1_2)"/>
<path d="M385.288 283.888L385.288 312.863L341.83 312.863L341.83 240.43L341.83 240.43C353.356 240.43 364.409 245.008 372.559 253.158C380.709 261.308 385.288 272.362 385.288 283.888Z" fill="url(#paint2_linear_1_2)"/>
<path d="M457.726 283.876C459.63 283.876 461.514 283.501 463.272 282.773C465.03 282.044 466.628 280.976 467.973 279.63C469.319 278.284 470.386 276.686 471.114 274.927C471.841 273.169 472.215 271.284 472.215 269.381L472.205 240.613V225.944C472.205 210.576 466.1 195.838 455.234 184.971C444.367 174.105 429.629 168 414.261 168H225.944C218.334 168 210.8 169.499 203.77 172.411C196.74 175.323 190.352 179.591 184.971 184.971C179.591 190.352 175.323 196.74 172.411 203.77C169.499 210.8 168 218.335 168 225.944V464.964C168 466.884 168.763 468.727 170.121 470.085C171.48 471.443 173.322 472.207 175.243 472.207H414.261C429.629 472.207 444.367 466.102 455.234 455.235C466.1 444.368 472.205 429.63 472.205 414.262V356.226H472.203V334.593C472.203 328.83 469.914 323.303 465.839 319.228C461.764 315.153 456.237 312.864 450.474 312.864H341.83V356.322H428.747V407.019C428.747 412.782 426.458 418.309 422.383 422.384C418.308 426.459 412.781 428.748 407.018 428.748H218.701C216.78 428.748 214.938 427.985 213.579 426.627C212.221 425.269 211.458 423.426 211.458 421.505V233.187C211.458 230.334 212.02 227.508 213.112 224.872C214.204 222.235 215.804 219.84 217.822 217.822C219.84 215.805 222.235 214.204 224.871 213.112C227.508 212.02 230.333 211.458 233.187 211.458H407.055C409.91 211.458 412.737 212.021 415.374 213.113C418.011 214.206 420.407 215.808 422.425 217.827C424.443 219.846 426.043 222.243 427.134 224.881C428.225 227.519 428.786 230.345 428.784 233.2L428.767 282.443C428.767 282.635 428.805 282.826 428.88 283.003C428.954 283.181 429.063 283.341 429.2 283.476C429.337 283.611 429.5 283.717 429.679 283.789C429.857 283.86 430.049 283.895 430.241 283.891C430.241 283.891 430.48 283.88 457.726 283.876Z" fill="white"/>
<defs>
<linearGradient id="paint0_linear_1_2" x1="276.643" y1="428.747" x2="276.643" y2="240.43" gradientUnits="userSpaceOnUse">
<stop stop-color="#BFBFBF"/>
<stop offset="0.5" stop-color="white"/>
</linearGradient>
<linearGradient id="paint1_linear_1_2" x1="363.559" y1="428.748" x2="363.559" y2="356.321" gradientUnits="userSpaceOnUse">
<stop stop-color="#BFBFBF"/>
<stop offset="0.75" stop-color="white"/>
<stop offset="1" stop-color="#BFBFBF"/>
</linearGradient>
<linearGradient id="paint2_linear_1_2" x1="363.559" y1="312.863" x2="363.559" y2="240.43" gradientUnits="userSpaceOnUse">
<stop stop-color="#E6E6E6"/>
<stop offset="0.41579" stop-color="white"/>
</linearGradient>
</defs>
</svg>
